<mxfile host="app.diagrams.net" modified="2020-12-19T21:31:21.452Z" agent="5.0 (Macintosh; Intel Mac OS X 10_15_6) AppleWebKit/605.1.15 (KHTML, like Gecko) Version/14.0.1 Safari/605.1.15" etag="K_cpkw7p9PJvWvly19hK" version="14.0.4" type="github">
  <diagram id="uKRyEX4Oqy5Uq11Np0ob" name="Page-1">
    <mxGraphModel dx="2066" dy="1185" grid="1" gridSize="10" guides="1" tooltips="1" connect="1" arrows="1" fold="1" page="1" pageScale="1" pageWidth="1169" pageHeight="827" math="0" shadow="0">
      <root>
        <mxCell id="0" />
        <mxCell id="1" parent="0" />
        <mxCell id="KPVkUS9t8yKxZZGC2MSo-30" value="" style="html=1;shadow=0;dashed=0;align=center;verticalAlign=middle;shape=mxgraph.arrows2.uTurnArrow;dy=11;arrowHead=43;dx2=25;fillColor=#ffe6cc;strokeColor=#d79b00;" parent="1" vertex="1">
          <mxGeometry x="220" y="378" width="100" height="100" as="geometry" />
        </mxCell>
        <mxCell id="KPVkUS9t8yKxZZGC2MSo-31" value="&lt;span style=&quot;font-size: 11px&quot;&gt;branch&lt;br&gt;&lt;/span&gt;commit" style="html=1;shadow=0;dashed=0;align=center;verticalAlign=middle;shape=mxgraph.arrows2.arrow;dy=0;dx=30;notch=29.57;fillColor=#dae8fc;strokeColor=#6c8ebf;fontSize=12;" parent="1" vertex="1">
          <mxGeometry x="390" y="365" width="110" height="60" as="geometry" />
        </mxCell>
        <mxCell id="KPVkUS9t8yKxZZGC2MSo-32" value="unit test" style="html=1;shadow=0;dashed=0;align=center;verticalAlign=middle;shape=mxgraph.arrows2.arrow;dy=0;dx=30;notch=29.57;horizontal=1;fillColor=#f5f5f5;strokeColor=#666666;fontColor=#333333;" parent="1" vertex="1">
          <mxGeometry x="485" y="367.5" width="105" height="55" as="geometry" />
        </mxCell>
        <mxCell id="KPVkUS9t8yKxZZGC2MSo-36" value="design changes" style="html=1;shadow=0;dashed=0;align=center;verticalAlign=middle;shape=mxgraph.arrows2.arrow;dy=0;dx=30;notch=0;fillColor=#fff2cc;strokeColor=#d6b656;" parent="1" vertex="1">
          <mxGeometry x="300" y="365" width="110" height="60" as="geometry" />
        </mxCell>
        <mxCell id="KPVkUS9t8yKxZZGC2MSo-38" value="unit test" style="html=1;shadow=0;dashed=0;align=center;verticalAlign=middle;shape=mxgraph.arrows2.arrow;dy=0;dx=30;notch=29.57;fillColor=#f5f5f5;strokeColor=#666666;fontColor=#333333;" parent="1" vertex="1">
          <mxGeometry x="560" y="367.5" width="110" height="55" as="geometry" />
        </mxCell>
        <mxCell id="KPVkUS9t8yKxZZGC2MSo-39" value="unit test" style="html=1;shadow=0;dashed=0;align=center;verticalAlign=middle;shape=mxgraph.arrows2.arrow;dy=0;dx=25.57;notch=29.57;fillColor=#f5f5f5;strokeColor=#666666;fontColor=#333333;" parent="1" vertex="1">
          <mxGeometry x="640" y="367.5" width="104" height="55" as="geometry" />
        </mxCell>
        <mxCell id="KPVkUS9t8yKxZZGC2MSo-40" value="validation&lt;br&gt;complete" style="html=1;shadow=0;dashed=0;align=center;verticalAlign=middle;shape=mxgraph.arrows2.arrow;dy=0;dx=30;notch=29.57;fillColor=#d5e8d4;strokeColor=#82b366;" parent="1" vertex="1">
          <mxGeometry x="730" y="365" width="110" height="60" as="geometry" />
        </mxCell>
        <mxCell id="KPVkUS9t8yKxZZGC2MSo-41" value="implementation" style="html=1;shadow=0;dashed=0;align=center;verticalAlign=middle;shape=mxgraph.arrows2.arrow;dy=0;dx=10;notch=10;flipH=1;fillColor=#ffe6cc;strokeColor=#d79b00;" parent="1" vertex="1">
          <mxGeometry x="310" y="456" width="190" height="22" as="geometry" />
        </mxCell>
        <mxCell id="KPVkUS9t8yKxZZGC2MSo-43" value="&lt;font style=&quot;font-size: 11px;&quot;&gt;debugging&lt;/font&gt;" style="html=1;shadow=0;dashed=0;align=center;verticalAlign=middle;shape=mxgraph.arrows2.arrow;dy=0;dx=10;notch=10;flipH=1;horizontal=1;fontSize=11;fillColor=#f8cecc;strokeColor=#b85450;" parent="1" vertex="1">
          <mxGeometry x="490" y="456" width="80" height="22" as="geometry" />
        </mxCell>
        <mxCell id="KPVkUS9t8yKxZZGC2MSo-44" value="&lt;span style=&quot;font-size: 11px;&quot;&gt;debugging&lt;/span&gt;" style="html=1;shadow=0;dashed=0;align=center;verticalAlign=middle;shape=mxgraph.arrows2.arrow;dy=0;dx=10;notch=10;flipH=1;horizontal=1;fontSize=11;fillColor=#f8cecc;strokeColor=#b85450;" parent="1" vertex="1">
          <mxGeometry x="560" y="456" width="90" height="22" as="geometry" />
        </mxCell>
        <mxCell id="KPVkUS9t8yKxZZGC2MSo-45" value="&lt;span style=&quot;font-size: 11px;&quot;&gt;debugging&lt;/span&gt;" style="html=1;shadow=0;dashed=0;align=center;verticalAlign=middle;shape=mxgraph.arrows2.arrow;dy=0;dx=10;notch=0;flipH=1;horizontal=1;fontSize=11;fillColor=#f8cecc;strokeColor=#b85450;" parent="1" vertex="1">
          <mxGeometry x="640" y="456" width="90" height="22" as="geometry" />
        </mxCell>
        <mxCell id="KPVkUS9t8yKxZZGC2MSo-50" value="" style="endArrow=classic;html=1;fontSize=11;exitX=0;exitY=0;exitDx=40;exitDy=60;exitPerimeter=0;" parent="1" source="KPVkUS9t8yKxZZGC2MSo-32" edge="1">
          <mxGeometry relative="1" as="geometry">
            <mxPoint x="520" y="400" as="sourcePoint" />
            <mxPoint x="525" y="455" as="targetPoint" />
          </mxGeometry>
        </mxCell>
        <mxCell id="KPVkUS9t8yKxZZGC2MSo-51" value="❌" style="edgeLabel;resizable=0;html=1;align=center;verticalAlign=middle;fontSize=8;" parent="KPVkUS9t8yKxZZGC2MSo-50" connectable="0" vertex="1">
          <mxGeometry relative="1" as="geometry" />
        </mxCell>
        <mxCell id="KPVkUS9t8yKxZZGC2MSo-52" value="" style="endArrow=classic;html=1;fontSize=11;exitX=0;exitY=0;exitDx=40;exitDy=60;exitPerimeter=0;entryX=0.625;entryY=-0.061;entryDx=0;entryDy=0;entryPerimeter=0;" parent="1" edge="1">
          <mxGeometry relative="1" as="geometry">
            <mxPoint x="604.83" y="425.34" as="sourcePoint" />
            <mxPoint x="604.83" y="454.998" as="targetPoint" />
          </mxGeometry>
        </mxCell>
        <mxCell id="KPVkUS9t8yKxZZGC2MSo-53" value="❌" style="edgeLabel;resizable=0;html=1;align=center;verticalAlign=middle;fontSize=8;" parent="KPVkUS9t8yKxZZGC2MSo-52" connectable="0" vertex="1">
          <mxGeometry relative="1" as="geometry" />
        </mxCell>
        <mxCell id="KPVkUS9t8yKxZZGC2MSo-56" value="" style="endArrow=classic;html=1;fontSize=11;exitX=0;exitY=0;exitDx=40;exitDy=60;exitPerimeter=0;entryX=0.625;entryY=-0.061;entryDx=0;entryDy=0;entryPerimeter=0;" parent="1" edge="1">
          <mxGeometry relative="1" as="geometry">
            <mxPoint x="680.9999999999999" y="424.99999999999983" as="sourcePoint" />
            <mxPoint x="680.9999999999999" y="454.6580000000001" as="targetPoint" />
          </mxGeometry>
        </mxCell>
        <mxCell id="KPVkUS9t8yKxZZGC2MSo-57" value="❌" style="edgeLabel;resizable=0;html=1;align=center;verticalAlign=middle;fontSize=8;" parent="KPVkUS9t8yKxZZGC2MSo-56" connectable="0" vertex="1">
          <mxGeometry relative="1" as="geometry" />
        </mxCell>
        <mxCell id="KPVkUS9t8yKxZZGC2MSo-58" value="master&lt;br&gt;deploy" style="html=1;shadow=0;dashed=0;align=center;verticalAlign=middle;shape=mxgraph.arrows2.arrow;dy=0;dx=30;notch=29.57;fillColor=#dae8fc;strokeColor=#6c8ebf;fontSize=11;" parent="1" vertex="1">
          <mxGeometry x="820" y="365" width="130" height="60" as="geometry" />
        </mxCell>
        <mxCell id="KPVkUS9t8yKxZZGC2MSo-64" style="edgeStyle=orthogonalEdgeStyle;rounded=0;orthogonalLoop=1;jettySize=auto;html=1;entryX=0;entryY=0;entryDx=90;entryDy=22;entryPerimeter=0;fontSize=11;" parent="1" target="KPVkUS9t8yKxZZGC2MSo-41" edge="1">
          <mxGeometry relative="1" as="geometry">
            <mxPoint x="410" y="500" as="sourcePoint" />
          </mxGeometry>
        </mxCell>
        <mxCell id="KPVkUS9t8yKxZZGC2MSo-60" value="New instruction" style="text;html=1;strokeColor=#9673a6;fillColor=#e1d5e7;align=center;verticalAlign=middle;whiteSpace=wrap;rounded=0;fontSize=11;" parent="1" vertex="1">
          <mxGeometry x="365" y="500" width="90" height="20" as="geometry" />
        </mxCell>
        <mxCell id="KPVkUS9t8yKxZZGC2MSo-65" value="" style="html=1;shadow=0;dashed=0;align=center;verticalAlign=middle;shape=mxgraph.arrows2.arrow;dy=0;dx=29.14;notch=30.43;horizontal=1;fillColor=#f5f5f5;strokeColor=#666666;fontColor=#333333;opacity=40;strokeWidth=3;" parent="1" vertex="1">
          <mxGeometry x="481" y="365" width="266" height="60" as="geometry" />
        </mxCell>
        <mxCell id="KPVkUS9t8yKxZZGC2MSo-66" value="System Test" style="text;html=1;strokeColor=none;fillColor=none;align=center;verticalAlign=middle;whiteSpace=wrap;rounded=0;fontSize=11;opacity=40;" parent="1" vertex="1">
          <mxGeometry x="565" y="340" width="80" height="20" as="geometry" />
        </mxCell>
      </root>
    </mxGraphModel>
  </diagram>
</mxfile>
